<svg xmlns="http://www.w3.org/2000/svg" viewBox="0 0 96 96" role="img" aria-labelledby="title desc">
  <title id="title">Dragon Budget logo</title>
  <desc id="desc">A shield mark with a stylized D and B for Dragon Budget.</desc>
  <rect width="96" height="96" rx="20" fill="#12315c"/>
  <path d="M48 12 75 24v22c0 19-11 32-27 39-16-7-27-20-27-39V24l27-12Z" fill="#e8f4ff"/>
  <path d="M37 30h15c10 0 17 6 17 16 0 9-7 16-17 16H37V30Zm12 11v10h3c3 0 6-2 6-5s-3-5-6-5h-3Z" fill="#1f6fd2"/>
  <path d="M31 63c11 3 24 4 36-1-6 9-17 14-31 13l-5-12Z" fill="#d99a22"/>
</svg>
