<svg xmlns="http://www.w3.org/2000/svg" viewBox="0 0 1400 820" role="img" aria-labelledby="title desc">
  <title id="title">Dragon Budget safe-to-spend dashboard preview</title>
  <desc id="desc">A layered budgeting dashboard showing a safe-to-spend amount, bills, savings, and a purchase decision.</desc>
  <rect width="1400" height="820" fill="#e8f4ff"/>
  <rect x="760" y="78" width="410" height="660" rx="34" fill="#12315c"/>
  <rect x="790" y="120" width="350" height="584" rx="24" fill="#ffffff"/>
  <text x="824" y="168" fill="#12315c" font-family="Arial, Helvetica, sans-serif" font-size="28" font-weight="700">Dragon Budget</text>
  <rect x="824" y="202" width="282" height="144" rx="16" fill="#e8f4ff"/>
  <text x="852" y="248" fill="#58708c" font-family="Arial, Helvetica, sans-serif" font-size="20">Safe to spend</text>
  <text x="852" y="304" fill="#12315c" font-family="Arial, Helvetica, sans-serif" font-size="54" font-weight="800">$184</text>
  <circle cx="1054" cy="272" r="36" fill="#d99a22"/>
  <path d="M1040 272h28M1054 258v28" stroke="#221600" stroke-width="8" stroke-linecap="round"/>
  <rect x="824" y="380" width="282" height="58" rx="12" fill="#f6faff"/>
  <text x="846" y="416" fill="#12315c" font-family="Arial, Helvetica, sans-serif" font-size="20" font-weight="700">Bills covered</text>
  <text x="1055" y="416" fill="#267a54" font-family="Arial, Helvetica, sans-serif" font-size="20" font-weight="700" text-anchor="end">$420</text>
  <rect x="824" y="456" width="282" height="58" rx="12" fill="#f6faff"/>
  <text x="846" y="492" fill="#12315c" font-family="Arial, Helvetica, sans-serif" font-size="20" font-weight="700">Savings goal</text>
  <text x="1055" y="492" fill="#1f6fd2" font-family="Arial, Helvetica, sans-serif" font-size="20" font-weight="700" text-anchor="end">$75</text>
  <rect x="824" y="532" width="282" height="86" rx="12" fill="#fff9ec"/>
  <text x="846" y="568" fill="#12315c" font-family="Arial, Helvetica, sans-serif" font-size="20" font-weight="700">New headphones?</text>
  <text x="846" y="598" fill="#267a54" font-family="Arial, Helvetica, sans-serif" font-size="22" font-weight="800">Yes, with room left</text>
  <rect x="302" y="214" width="370" height="250" rx="22" fill="#ffffff" opacity="0.95"/>
  <text x="338" y="268" fill="#12315c" font-family="Arial, Helvetica, sans-serif" font-size="30" font-weight="800">Can I afford this?</text>
  <text x="338" y="314" fill="#58708c" font-family="Arial, Helvetica, sans-serif" font-size="22">Balance is not the whole story.</text>
  <rect x="338" y="350" width="260" height="22" rx="11" fill="#d8e4f0"/>
  <rect x="338" y="386" width="205" height="22" rx="11" fill="#d8e4f0"/>
  <rect x="338" y="424" width="148" height="22" rx="11" fill="#d99a22"/>
  <circle cx="1182" cy="152" r="54" fill="#0f8b8d" opacity="0.9"/>
  <circle cx="1228" cy="636" r="72" fill="#d99a22" opacity="0.45"/>
  <circle cx="690" cy="650" r="42" fill="#1f6fd2" opacity="0.35"/>
</svg>
